<svg width="110" height="173" viewBox="0 0 110 173" fill="none" xmlns="http://www.w3.org/2000/svg">
<rect x="0.5" y="35.5" width="109" height="123" rx="21.5" fill="#EF395A" stroke="black"/>
<rect x="6.5" y="155.5" width="98" height="17" rx="3.5" fill="#EF395A" stroke="black"/>
<g clip-path="url(#clip0_194_373)">
<path fill-rule="evenodd" clip-rule="evenodd" d="M55.0002 6.83331C73.8704 6.83331 89.1668 22.1297 89.1668 41C89.1668 59.8702 73.8704 75.1666 55.0002 75.1666C36.1299 75.1666 20.8335 59.8702 20.8335 41C20.8335 22.1297 36.1299 6.83331 55.0002 6.83331ZM28.3672 47.1841C29.5629 52.3173 32.2154 56.996 36.0059 60.658C39.7965 64.32 44.5638 66.8096 49.7351 67.8276C49.0757 58.8589 46.1271 53.4776 42.4029 50.5017C38.8359 47.6488 33.9979 46.5452 28.3672 47.1807V47.1841ZM67.5974 50.4983C63.8732 53.4811 60.9247 58.8589 60.2652 67.8276C65.437 66.8094 70.2046 64.3193 73.9952 60.6566C77.7858 56.9939 80.438 52.3145 81.6331 47.1807C76.0024 46.5452 71.1644 47.6488 67.5974 50.5017V50.4983ZM55.0002 13.6666C48.6321 13.6675 42.464 15.891 37.5601 19.9535C32.6562 24.016 29.3239 29.6627 28.1383 35.9194L27.9914 36.7667L35.5422 35.2566C37.5307 34.8602 39.4202 33.8113 41.5317 32.3866L43.1614 31.2522C45.8845 29.3184 49.9196 27.3333 55.0002 27.3333C59.7425 27.3333 63.5726 29.0621 66.2752 30.8661L68.4687 32.3866C70.3137 33.6336 71.9947 34.5903 73.7167 35.0789L74.4581 35.2566L82.0089 36.7667C80.9984 30.3295 77.7219 24.4648 72.77 20.2295C67.818 15.9942 61.5163 13.6668 55.0002 13.6666Z" fill="black"/>
</g>
<defs>
<clipPath id="clip0_194_373">
<rect width="82" height="82" fill="white" transform="translate(14)"/>
</clipPath>
</defs>
</svg>
