<svg width="70" height="70" viewBox="0 0 70 70" fill="none" xmlns="http://www.w3.org/2000/svg">
<path d="M8.25033 40.8337V41.3337H8.75033H49.5837H50.0837V40.8337V17.5003V17.0003H49.5837H8.75033H8.25033V17.5003V40.8337ZM8.75033 12.167H49.5837C52.5159 12.167 54.917 14.5681 54.917 17.5003V40.8337C54.917 43.7659 52.5159 46.167 49.5837 46.167H8.75033C5.81813 46.167 3.41699 43.7659 3.41699 40.8337V17.5003C3.41699 14.5681 5.81813 12.167 8.75033 12.167Z" fill="#EF395A" stroke="black"/>
<path d="M61.7503 52.5003V20.917H66.5837V52.5003C66.5837 55.4325 64.1825 57.8337 61.2503 57.8337H12.167V53.0003H61.2503H61.7503V52.5003ZM20.917 29.167C20.917 24.6015 24.6015 20.917 29.167 20.917C33.7325 20.917 37.417 24.6015 37.417 29.167C37.417 33.7325 33.7325 37.417 29.167 37.417C24.6015 37.417 20.917 33.7325 20.917 29.167Z" fill="#EF395A" stroke="black"/>
</svg>
