<svg width="150" height="150" viewBox="0 0 150 150" fill="none" xmlns="http://www.w3.org/2000/svg">
<mask id="path-1-inside-1_32_906" fill="white">
<path d="M50 131.25H25C23.3424 131.25 21.7527 130.592 20.5806 129.419C19.4085 128.247 18.75 126.658 18.75 125V100C18.75 98.3424 18.0915 96.7527 16.9194 95.5806C15.7473 94.4085 14.1576 93.75 12.5 93.75C10.8424 93.75 9.25268 94.4085 8.08058 95.5806C6.90848 96.7527 6.25 98.3424 6.25 100V125C6.25 129.973 8.22544 134.742 11.7417 138.258C15.2581 141.775 20.0272 143.75 25 143.75H50C51.6576 143.75 53.2473 143.092 54.4194 141.919C55.5915 140.747 56.25 139.158 56.25 137.5C56.25 135.842 55.5915 134.253 54.4194 133.081C53.2473 131.908 51.6576 131.25 50 131.25ZM137.5 93.75C135.842 93.75 134.253 94.4085 133.081 95.5806C131.908 96.7527 131.25 98.3424 131.25 100V125C131.25 126.658 130.592 128.247 129.419 129.419C128.247 130.592 126.658 131.25 125 131.25H100C98.3424 131.25 96.7527 131.908 95.5806 133.081C94.4085 134.253 93.75 135.842 93.75 137.5C93.75 139.158 94.4085 140.747 95.5806 141.919C96.7527 143.092 98.3424 143.75 100 143.75H125C129.973 143.75 134.742 141.775 138.258 138.258C141.775 134.742 143.75 129.973 143.75 125V100C143.75 98.3424 143.092 96.7527 141.919 95.5806C140.747 94.4085 139.158 93.75 137.5 93.75ZM125 6.25H100C98.3424 6.25 96.7527 6.90848 95.5806 8.08058C94.4085 9.25268 93.75 10.8424 93.75 12.5C93.75 14.1576 94.4085 15.7473 95.5806 16.9194C96.7527 18.0915 98.3424 18.75 100 18.75H125C126.658 18.75 128.247 19.4085 129.419 20.5806C130.592 21.7527 131.25 23.3424 131.25 25V50C131.25 51.6576 131.908 53.2473 133.081 54.4194C134.253 55.5915 135.842 56.25 137.5 56.25C139.158 56.25 140.747 55.5915 141.919 54.4194C143.092 53.2473 143.75 51.6576 143.75 50V25C143.75 20.0272 141.775 15.2581 138.258 11.7417C134.742 8.22544 129.973 6.25 125 6.25ZM12.5 56.25C14.1576 56.25 15.7473 55.5915 16.9194 54.4194C18.0915 53.2473 18.75 51.6576 18.75 50V25C18.75 23.3424 19.4085 21.7527 20.5806 20.5806C21.7527 19.4085 23.3424 18.75 25 18.75H50C51.6576 18.75 53.2473 18.0915 54.4194 16.9194C55.5915 15.7473 56.25 14.1576 56.25 12.5C56.25 10.8424 55.5915 9.25268 54.4194 8.08058C53.2473 6.90848 51.6576 6.25 50 6.25H25C20.0272 6.25 15.2581 8.22544 11.7417 11.7417C8.22544 15.2581 6.25 20.0272 6.25 25V50C6.25 51.6576 6.90848 53.2473 8.08058 54.4194C9.25268 55.5915 10.8424 56.25 12.5 56.25ZM62.5 31.25H37.5C35.8424 31.25 34.2527 31.9085 33.0806 33.0806C31.9085 34.2527 31.25 35.8424 31.25 37.5V62.5C31.25 64.1576 31.9085 65.7473 33.0806 66.9194C34.2527 68.0915 35.8424 68.75 37.5 68.75H62.5C64.1576 68.75 65.7473 68.0915 66.9194 66.9194C68.0915 65.7473 68.75 64.1576 68.75 62.5V37.5C68.75 35.8424 68.0915 34.2527 66.9194 33.0806C65.7473 31.9085 64.1576 31.25 62.5 31.25ZM56.25 56.25H43.75V43.75H56.25V56.25ZM87.5 68.75H112.5C114.158 68.75 115.747 68.0915 116.919 66.9194C118.092 65.7473 118.75 64.1576 118.75 62.5V37.5C118.75 35.8424 118.092 34.2527 116.919 33.0806C115.747 31.9085 114.158 31.25 112.5 31.25H87.5C85.8424 31.25 84.2527 31.9085 83.0806 33.0806C81.9085 34.2527 81.25 35.8424 81.25 37.5V62.5C81.25 64.1576 81.9085 65.7473 83.0806 66.9194C84.2527 68.0915 85.8424 68.75 87.5 68.75ZM93.75 43.75H106.25V56.25H93.75V43.75ZM62.5 81.25H37.5C35.8424 81.25 34.2527 81.9085 33.0806 83.0806C31.9085 84.2527 31.25 85.8424 31.25 87.5V112.5C31.25 114.158 31.9085 115.747 33.0806 116.919C34.2527 118.092 35.8424 118.75 37.5 118.75H62.5C64.1576 118.75 65.7473 118.092 66.9194 116.919C68.0915 115.747 68.75 114.158 68.75 112.5V87.5C68.75 85.8424 68.0915 84.2527 66.9194 83.0806C65.7473 81.9085 64.1576 81.25 62.5 81.25ZM56.25 106.25H43.75V93.75H56.25V106.25ZM87.5 100C89.1576 100 90.7473 99.3415 91.9194 98.1694C93.0915 96.9973 93.75 95.4076 93.75 93.75C95.4076 93.75 96.9973 93.0915 98.1694 91.9194C99.3415 90.7473 100 89.1576 100 87.5C100 85.8424 99.3415 84.2527 98.1694 83.0806C96.9973 81.9085 95.4076 81.25 93.75 81.25H87.5C85.8424 81.25 84.2527 81.9085 83.0806 83.0806C81.9085 84.2527 81.25 85.8424 81.25 87.5V93.75C81.25 95.4076 81.9085 96.9973 83.0806 98.1694C84.2527 99.3415 85.8424 100 87.5 100ZM112.5 81.25C110.842 81.25 109.253 81.9085 108.081 83.0806C106.908 84.2527 106.25 85.8424 106.25 87.5V106.25C104.592 106.25 103.003 106.908 101.831 108.081C100.658 109.253 100 110.842 100 112.5C100 114.158 100.658 115.747 101.831 116.919C103.003 118.092 104.592 118.75 106.25 118.75H112.5C114.158 118.75 115.747 118.092 116.919 116.919C118.092 115.747 118.75 114.158 118.75 112.5V87.5C118.75 85.8424 118.092 84.2527 116.919 83.0806C115.747 81.9085 114.158 81.25 112.5 81.25ZM87.5 106.25C86.2639 106.25 85.0555 106.617 84.0277 107.303C82.9999 107.99 82.1988 108.966 81.7258 110.108C81.2527 111.25 81.1289 112.507 81.3701 113.719C81.6113 114.932 82.2065 116.045 83.0806 116.919C83.9547 117.794 85.0683 118.389 86.2807 118.63C87.4931 118.871 88.7497 118.747 89.8918 118.274C91.0338 117.801 92.0099 117 92.6967 115.972C93.3834 114.945 93.75 113.736 93.75 112.5C93.75 110.842 93.0915 109.253 91.9194 108.081C90.7473 106.908 89.1576 106.25 87.5 106.25Z"/>
</mask>
<path d="M50 131.25H25C23.3424 131.25 21.7527 130.592 20.5806 129.419C19.4085 128.247 18.75 126.658 18.75 125V100C18.75 98.3424 18.0915 96.7527 16.9194 95.5806C15.7473 94.4085 14.1576 93.75 12.5 93.75C10.8424 93.75 9.25268 94.4085 8.08058 95.5806C6.90848 96.7527 6.25 98.3424 6.25 100V125C6.25 129.973 8.22544 134.742 11.7417 138.258C15.2581 141.775 20.0272 143.75 25 143.75H50C51.6576 143.75 53.2473 143.092 54.4194 141.919C55.5915 140.747 56.25 139.158 56.25 137.5C56.25 135.842 55.5915 134.253 54.4194 133.081C53.2473 131.908 51.6576 131.25 50 131.25ZM137.5 93.75C135.842 93.75 134.253 94.4085 133.081 95.5806C131.908 96.7527 131.25 98.3424 131.25 100V125C131.25 126.658 130.592 128.247 129.419 129.419C128.247 130.592 126.658 131.25 125 131.25H100C98.3424 131.25 96.7527 131.908 95.5806 133.081C94.4085 134.253 93.75 135.842 93.75 137.5C93.75 139.158 94.4085 140.747 95.5806 141.919C96.7527 143.092 98.3424 143.75 100 143.75H125C129.973 143.75 134.742 141.775 138.258 138.258C141.775 134.742 143.75 129.973 143.75 125V100C143.75 98.3424 143.092 96.7527 141.919 95.5806C140.747 94.4085 139.158 93.75 137.5 93.75ZM125 6.25H100C98.3424 6.25 96.7527 6.90848 95.5806 8.08058C94.4085 9.25268 93.75 10.8424 93.75 12.5C93.75 14.1576 94.4085 15.7473 95.5806 16.9194C96.7527 18.0915 98.3424 18.75 100 18.75H125C126.658 18.75 128.247 19.4085 129.419 20.5806C130.592 21.7527 131.25 23.3424 131.25 25V50C131.25 51.6576 131.908 53.2473 133.081 54.4194C134.253 55.5915 135.842 56.25 137.5 56.25C139.158 56.25 140.747 55.5915 141.919 54.4194C143.092 53.2473 143.75 51.6576 143.75 50V25C143.75 20.0272 141.775 15.2581 138.258 11.7417C134.742 8.22544 129.973 6.25 125 6.25ZM12.5 56.25C14.1576 56.25 15.7473 55.5915 16.9194 54.4194C18.0915 53.2473 18.75 51.6576 18.75 50V25C18.75 23.3424 19.4085 21.7527 20.5806 20.5806C21.7527 19.4085 23.3424 18.75 25 18.75H50C51.6576 18.75 53.2473 18.0915 54.4194 16.9194C55.5915 15.7473 56.25 14.1576 56.25 12.5C56.25 10.8424 55.5915 9.25268 54.4194 8.08058C53.2473 6.90848 51.6576 6.25 50 6.25H25C20.0272 6.25 15.2581 8.22544 11.7417 11.7417C8.22544 15.2581 6.25 20.0272 6.25 25V50C6.25 51.6576 6.90848 53.2473 8.08058 54.4194C9.25268 55.5915 10.8424 56.25 12.5 56.25ZM62.5 31.25H37.5C35.8424 31.25 34.2527 31.9085 33.0806 33.0806C31.9085 34.2527 31.25 35.8424 31.25 37.5V62.5C31.25 64.1576 31.9085 65.7473 33.0806 66.9194C34.2527 68.0915 35.8424 68.75 37.5 68.75H62.5C64.1576 68.75 65.7473 68.0915 66.9194 66.9194C68.0915 65.7473 68.75 64.1576 68.75 62.5V37.5C68.75 35.8424 68.0915 34.2527 66.9194 33.0806C65.7473 31.9085 64.1576 31.25 62.5 31.25ZM56.25 56.25H43.75V43.75H56.25V56.25ZM87.5 68.75H112.5C114.158 68.75 115.747 68.0915 116.919 66.9194C118.092 65.7473 118.75 64.1576 118.75 62.5V37.5C118.75 35.8424 118.092 34.2527 116.919 33.0806C115.747 31.9085 114.158 31.25 112.5 31.25H87.5C85.8424 31.25 84.2527 31.9085 83.0806 33.0806C81.9085 34.2527 81.25 35.8424 81.25 37.5V62.5C81.25 64.1576 81.9085 65.7473 83.0806 66.9194C84.2527 68.0915 85.8424 68.75 87.5 68.75ZM93.75 43.75H106.25V56.25H93.75V43.75ZM62.5 81.25H37.5C35.8424 81.25 34.2527 81.9085 33.0806 83.0806C31.9085 84.2527 31.25 85.8424 31.25 87.5V112.5C31.25 114.158 31.9085 115.747 33.0806 116.919C34.2527 118.092 35.8424 118.75 37.5 118.75H62.5C64.1576 118.75 65.7473 118.092 66.9194 116.919C68.0915 115.747 68.75 114.158 68.75 112.5V87.5C68.75 85.8424 68.0915 84.2527 66.9194 83.0806C65.7473 81.9085 64.1576 81.25 62.5 81.25ZM56.25 106.25H43.75V93.75H56.25V106.25ZM87.5 100C89.1576 100 90.7473 99.3415 91.9194 98.1694C93.0915 96.9973 93.75 95.4076 93.75 93.75C95.4076 93.75 96.9973 93.0915 98.1694 91.9194C99.3415 90.7473 100 89.1576 100 87.5C100 85.8424 99.3415 84.2527 98.1694 83.0806C96.9973 81.9085 95.4076 81.25 93.75 81.25H87.5C85.8424 81.25 84.2527 81.9085 83.0806 83.0806C81.9085 84.2527 81.25 85.8424 81.25 87.5V93.75C81.25 95.4076 81.9085 96.9973 83.0806 98.1694C84.2527 99.3415 85.8424 100 87.5 100ZM112.5 81.25C110.842 81.25 109.253 81.9085 108.081 83.0806C106.908 84.2527 106.25 85.8424 106.25 87.5V106.25C104.592 106.25 103.003 106.908 101.831 108.081C100.658 109.253 100 110.842 100 112.5C100 114.158 100.658 115.747 101.831 116.919C103.003 118.092 104.592 118.75 106.25 118.75H112.5C114.158 118.75 115.747 118.092 116.919 116.919C118.092 115.747 118.75 114.158 118.75 112.5V87.5C118.75 85.8424 118.092 84.2527 116.919 83.0806C115.747 81.9085 114.158 81.25 112.5 81.25ZM87.5 106.25C86.2639 106.25 85.0555 106.617 84.0277 107.303C82.9999 107.99 82.1988 108.966 81.7258 110.108C81.2527 111.25 81.1289 112.507 81.3701 113.719C81.6113 114.932 82.2065 116.045 83.0806 116.919C83.9547 117.794 85.0683 118.389 86.2807 118.63C87.4931 118.871 88.7497 118.747 89.8918 118.274C91.0338 117.801 92.0099 117 92.6967 115.972C93.3834 114.945 93.75 113.736 93.75 112.5C93.75 110.842 93.0915 109.253 91.9194 108.081C90.7473 106.908 89.1576 106.25 87.5 106.25Z" fill="#EF395A" stroke="#4C4C4C" strokeWidth="4" mask="url(#path-1-inside-1_32_906)"/>
</svg>
