<svg width="150" height="150" viewBox="0 0 150 150" fill="none" xmlns="http://www.w3.org/2000/svg">
<path d="M116.235 15.9622C111.101 15.9622 106.924 20.1396 106.924 25.2733C106.924 30.407 111.101 34.5844 116.235 34.5844C121.369 34.5844 125.546 30.407 125.546 25.2733C125.546 20.1396 121.369 15.9622 116.235 15.9622Z" fill="#E1E1E1"/>
<path d="M33.7643 87.3806C28.6306 87.3806 24.4531 91.5581 24.4531 96.6917C24.4531 101.825 28.6306 106.003 33.7643 106.003C38.8979 106.003 43.0754 101.825 43.0754 96.6917C43.0757 91.5583 38.8979 87.3806 33.7643 87.3806Z" fill="#E1E1E1"/>
<path d="M33.7647 76.7394C19.8291 76.7394 8.49146 88.077 8.49146 102.013C8.49146 116.516 28.0128 140.178 33.7647 140.178C39.5166 140.178 59.0379 116.516 59.0379 102.013C59.0379 88.077 47.7003 76.7394 33.7647 76.7394ZM33.7647 111.324C25.6966 111.324 19.133 104.76 19.133 96.692C19.133 88.6239 25.6966 82.0603 33.7647 82.0603C41.8328 82.0603 48.3964 88.6239 48.3964 96.692C48.3967 104.76 41.8328 111.324 33.7647 111.324Z" fill="#EF395A"/>
<path d="M116.235 5.32056C102.3 5.32056 90.9622 16.6582 90.9622 30.5938C90.9622 45.0969 110.484 68.7594 116.235 68.7594C121.987 68.7594 141.509 45.0969 141.509 30.5938C141.509 16.6582 130.171 5.32056 116.235 5.32056ZM116.235 39.9049C108.167 39.9049 101.604 33.3413 101.604 25.2732C101.604 17.2051 108.167 10.6415 116.235 10.6415C124.303 10.6415 130.867 17.2051 130.867 25.2732C130.867 33.3413 124.303 39.9049 116.235 39.9049Z" fill="#E1E1E1"/>
<path d="M116.235 0C99.3654 0 85.6416 13.7238 85.6416 30.5938C85.6416 44.4384 104.849 74.0804 116.235 74.0804C127.622 74.0804 146.829 44.4387 146.829 30.5938C146.829 13.7238 133.105 0 116.235 0ZM116.235 68.7598C110.484 68.7598 90.9622 45.0973 90.9622 30.5941C90.9622 16.6585 102.3 5.3209 116.235 5.3209C130.171 5.3209 141.509 16.6585 141.509 30.5941C141.509 45.0973 121.987 68.7598 116.235 68.7598Z" fill="#4C4C4C"/>
<path d="M33.7647 71.4187C16.8947 71.4187 3.1709 85.1425 3.1709 102.013C3.1709 115.857 22.3779 145.499 33.7647 145.499C45.1516 145.499 64.3586 115.857 64.3586 102.013C64.3589 85.1425 50.6348 71.4187 33.7647 71.4187ZM33.7647 140.178C28.0129 140.178 8.4915 116.516 8.4915 102.013C8.4915 88.0769 19.8291 76.7393 33.7647 76.7393C47.7004 76.7393 59.038 88.0769 59.038 102.013C59.038 116.516 39.5169 140.178 33.7647 140.178Z" fill="#4C4C4C"/>
<path d="M116.235 10.6412C108.167 10.6412 101.604 17.2049 101.604 25.273C101.604 33.341 108.167 39.9047 116.235 39.9047C124.304 39.9047 130.867 33.341 130.867 25.273C130.867 17.2049 124.304 10.6412 116.235 10.6412ZM116.235 34.5844C111.102 34.5844 106.924 30.407 106.924 25.2733C106.924 20.1396 111.102 15.9621 116.235 15.9621C121.369 15.9621 125.547 20.1396 125.547 25.2733C125.547 30.407 121.369 34.5844 116.235 34.5844Z" fill="#4C4C4C"/>
<path d="M33.7648 82.0599C25.6967 82.0599 19.1331 88.6236 19.1331 96.6917C19.1331 104.76 25.6967 111.323 33.7648 111.323C41.8329 111.323 48.3965 104.76 48.3965 96.6917C48.3968 88.6239 41.8329 82.0599 33.7648 82.0599ZM33.7648 106.003C28.6311 106.003 24.4537 101.826 24.4537 96.692C24.4537 91.5583 28.6311 87.3808 33.7648 87.3808C38.8985 87.3808 43.0759 91.5583 43.0759 96.692C43.0762 101.825 38.8985 106.003 33.7648 106.003Z" fill="#4C4C4C"/>
<path d="M107.165 114.253C106.297 113.363 105.376 112.457 104.426 111.526C102.897 110.023 101.292 108.449 99.7305 106.747C98.7368 105.666 97.0534 105.591 95.9711 106.586C94.8889 107.58 94.8163 109.263 95.81 110.345C97.4506 112.133 99.1015 113.754 100.698 115.322C101.619 116.226 102.513 117.104 103.356 117.968C103.877 118.503 104.569 118.771 105.26 118.771C105.931 118.771 106.601 118.519 107.118 118.015C108.17 116.989 108.191 115.304 107.165 114.253Z" fill="#4C4C4C"/>
<path d="M98.8249 139.088C96.2151 140.487 93.0742 141.642 89.4877 142.522C88.0615 142.871 87.1884 144.312 87.538 145.739C87.8353 146.954 88.9225 147.766 90.119 147.766C90.3294 147.766 90.5424 147.741 90.7556 147.689C94.7749 146.703 98.3353 145.387 101.337 143.778C102.633 143.084 103.12 141.47 102.426 140.177C101.732 138.881 100.117 138.392 98.8249 139.088Z" fill="#4C4C4C"/>
<path d="M110.495 122.248C109.066 122.594 108.189 124.032 108.533 125.459C108.653 125.95 108.71 126.423 108.71 126.906C108.71 128.746 107.848 130.744 106.073 133.017C105.169 134.174 105.374 135.846 106.533 136.75C107.019 137.13 107.596 137.314 108.168 137.314C108.959 137.314 109.741 136.963 110.266 136.29C112.799 133.047 114.031 129.977 114.031 126.906C114.031 126.009 113.922 125.102 113.706 124.209C113.362 122.781 111.915 121.91 110.495 122.248Z" fill="#4C4C4C"/>
<path d="M88.9731 82.0353C89.3782 82.2562 89.8162 82.3614 90.2475 82.3614C91.1894 82.3614 92.1011 81.8613 92.5845 80.978C94.3485 77.7512 97.0206 75.5027 98.9522 74.1843C100.165 73.357 100.477 71.7005 99.6485 70.4874C98.8238 69.2727 97.1648 68.9624 95.9516 69.791C93.5393 71.438 90.188 74.2725 87.916 78.4242C87.2103 79.7126 87.6843 81.3298 88.9731 82.0353Z" fill="#4C4C4C"/>
<path d="M79.3701 144.188C76.1305 144.503 72.6374 144.668 68.9885 144.679C67.5192 144.683 66.3321 145.878 66.3359 147.348C66.3398 148.814 67.531 150 68.9964 150C68.999 150 69.0017 150 69.0043 150C72.8193 149.988 76.48 149.814 79.8846 149.483C81.3474 149.341 82.4176 148.041 82.2746 146.578C82.1316 145.115 80.8379 144.038 79.3701 144.188Z" fill="#4C4C4C"/>
<path d="M58.5431 144.321C52.4288 143.896 48.2291 143.236 48.1875 143.228C46.7352 143.01 45.3738 143.987 45.1427 145.438C44.9115 146.889 45.9 148.253 47.3511 148.484C47.5304 148.511 51.8065 149.187 58.1742 149.629C58.2366 149.632 58.299 149.635 58.3611 149.635C59.7457 149.635 60.9149 148.562 61.0125 147.159C61.1139 145.693 60.0082 144.422 58.5431 144.321Z" fill="#4C4C4C"/>
<path d="M85.5248 90.2177C85.7715 92.8222 86.4913 95.5307 87.6643 98.2702C88.1099 99.3146 88.6036 100.319 89.1347 101.287C89.6179 102.169 90.5287 102.667 91.4691 102.667C91.9018 102.667 92.3407 102.562 92.7459 102.339C94.0344 101.632 94.506 100.015 93.7979 98.7275C93.3497 97.9104 92.9343 97.0623 92.556 96.1775C91.6001 93.9445 91.0168 91.7701 90.822 89.7164C90.6831 88.2524 89.3867 87.1846 87.9227 87.3185C86.4588 87.4573 85.3859 88.7549 85.5248 90.2177Z" fill="#4C4C4C"/>
<path d="M120.569 100.428C119.888 100.428 119.207 100.168 118.687 99.6489C117.648 98.6098 117.648 96.9255 118.687 95.8863L128.093 86.4806C129.132 85.442 130.817 85.442 131.856 86.4806C132.895 87.5198 132.895 89.204 131.856 90.2432L122.45 99.6489C121.93 100.168 121.249 100.428 120.569 100.428Z" fill="#EF395A"/>
<path d="M129.974 100.427C129.293 100.427 128.613 100.167 128.093 99.6478L118.687 90.2417C117.648 89.2026 117.648 87.518 118.687 86.4792C119.727 85.4406 121.411 85.4412 122.45 86.4792L131.856 95.8852C132.895 96.9244 132.895 98.6089 131.856 99.6478C131.336 100.167 130.655 100.427 129.974 100.427Z" fill="#EF395A"/>
<path d="M74.0121 132.352C68.8778 132.352 64.7009 128.175 64.7009 123.041C64.7009 117.906 68.8778 113.73 74.0121 113.73C79.1463 113.73 83.3232 117.906 83.3232 123.041C83.3232 128.175 79.1463 132.352 74.0121 132.352ZM74.0121 119.05C71.8116 119.05 70.0215 120.84 70.0215 123.041C70.0215 125.241 71.8116 127.031 74.0121 127.031C76.2126 127.031 78.0026 125.241 78.0026 123.041C78.0026 120.84 76.2126 119.05 74.0121 119.05Z" fill="#00D40B"/>
<path d="M45.6226 43.6465C44.942 43.6465 44.2608 43.3866 43.7417 42.8675L36.2168 35.3432C35.7176 34.8439 35.4375 34.1675 35.4375 33.462C35.4375 32.7565 35.7179 32.0798 36.2168 31.5809L43.7417 24.0565C44.7809 23.018 46.4654 23.0186 47.504 24.0565L55.0283 31.5809C56.0672 32.62 56.0672 34.3043 55.0283 35.3435L47.504 42.8678C46.9843 43.3866 46.3034 43.6465 45.6226 43.6465ZM41.86 33.4617L45.6226 37.224L49.3849 33.4617L45.6226 29.6994L41.86 33.4617Z" fill="#EF395A"/>
</svg>
