<svg width="125" height="98" viewBox="0 0 125 98" fill="none" xmlns="http://www.w3.org/2000/svg">
<path d="M1.15234 0.676025C0.600059 0.676025 0.152344 1.12374 0.152344 1.67603C0.152344 2.22831 0.600059 2.67603 1.15234 2.67603V0.676025ZM41.2371 53.868L40.4596 53.2391L41.2371 53.868ZM113.769 74.838C113.769 77.7835 116.157 80.1714 119.103 80.1714C122.048 80.1714 124.436 77.7835 124.436 74.838C124.436 71.8925 122.048 69.5047 119.103 69.5047C116.157 69.5047 113.769 71.8925 113.769 74.838ZM1.15234 2.67603C1.47566 2.67603 1.79903 2.6791 2.12238 2.68521L2.16017 0.685565C1.82429 0.679218 1.48833 0.676025 1.15234 0.676025V2.67603ZM4.06176 2.75807C4.70794 2.79435 5.35352 2.84251 5.99797 2.9023L6.18274 0.910858C5.51434 0.848843 4.84453 0.798864 4.17385 0.761215L4.06176 2.75807ZM7.92852 3.11643C8.571 3.19932 9.21179 3.29359 9.85038 3.39897L10.176 1.42566C9.51443 1.31648 8.85039 1.21879 8.18443 1.13287L7.92852 3.11643ZM11.7619 3.74874C12.3979 3.87656 13.0311 4.0153 13.661 4.16467L14.1224 2.21863C13.4703 2.06399 12.8146 1.92033 12.156 1.78795L11.7619 3.74874ZM15.5441 4.64543C16.1699 4.81666 16.7918 4.99833 17.4092 5.19015L18.0026 3.28021C17.3635 3.08164 16.7197 2.89359 16.0719 2.71634L15.5441 4.64543ZM19.2567 5.79896C19.8701 6.0128 20.4783 6.23667 21.0809 6.47027L21.8038 4.60549C21.1798 4.36359 20.5501 4.13181 19.9151 3.91044L19.2567 5.79896ZM22.8787 7.20321C23.4765 7.45913 24.068 7.7247 24.6524 7.99962L25.5037 6.18983C24.8979 5.90488 24.2851 5.6297 23.6658 5.36459L22.8787 7.20321ZM26.396 8.85805C26.9736 9.15542 27.5433 9.46203 28.1047 9.77756L29.0846 8.03408C28.5018 7.7065 27.9106 7.38833 27.3115 7.0799L26.396 8.85805ZM29.7764 10.7587C30.3313 11.0986 30.8769 11.4475 31.4125 11.805L32.5227 10.1414C31.9653 9.76941 31.3979 9.40657 30.8211 9.05323L29.7764 10.7587ZM33.0031 12.9131C33.5278 13.2948 34.0415 13.6849 34.5435 14.0832L35.7866 12.5164C35.2624 12.1005 34.7264 11.6935 34.1794 11.2956L33.0031 12.9131ZM36.0301 15.3163C36.5208 15.7421 36.9984 16.176 37.4622 16.6176L38.8414 15.1691C38.3548 14.7058 37.8543 14.2512 37.3407 13.8056L36.0301 15.3163ZM38.8275 17.9821C39.2737 18.4506 39.7045 18.9266 40.1193 19.4099L41.637 18.1073C41.1992 17.5973 40.7452 17.0956 40.2758 16.6028L38.8275 17.9821ZM41.33 20.9007C41.7223 21.4121 42.0968 21.9306 42.4527 22.4557L44.1082 21.3335C43.7299 20.7753 43.3325 20.2251 42.917 19.6835L41.33 20.9007ZM43.4789 24.0755C43.8052 24.6285 44.1109 25.1879 44.3954 25.7532L46.1819 24.8541C45.8769 24.248 45.5497 23.6496 45.2014 23.0592L43.4789 24.0755ZM45.192 27.485C45.4375 28.0732 45.6599 28.667 45.8584 29.2659L47.7568 28.6365C47.5421 27.989 47.3021 27.3483 47.0378 26.7149L45.192 27.485ZM46.3845 31.089C46.5356 31.7035 46.6616 32.3227 46.7615 32.9462L48.7363 32.6298C48.6276 31.9512 48.4906 31.2782 48.3267 30.6114L46.3845 31.089ZM46.982 34.8266C47.0286 35.4525 47.0488 36.0825 47.0416 36.716L49.0414 36.7387C49.0493 36.0476 49.0273 35.3606 48.9765 34.6782L46.982 34.8266ZM46.9393 38.6028C46.879 39.224 46.792 39.8485 46.6774 40.4759L48.6449 40.8352C48.7695 40.153 48.8642 39.4731 48.93 38.796L46.9393 38.6028ZM46.2608 42.3258C46.0989 42.9299 45.9109 43.5365 45.696 44.1452L47.5819 44.8111C47.8139 44.1542 48.0172 43.4981 48.1926 42.8434L46.2608 42.3258ZM44.9969 45.9148C44.7476 46.4849 44.4742 47.0566 44.1758 47.6297L45.9498 48.5532C46.2686 47.9409 46.5616 47.3284 46.8293 46.7162L44.9969 45.9148ZM43.2379 49.2987C42.9112 49.8399 42.5618 50.382 42.1892 50.9248L43.8379 52.0569C44.2322 51.4826 44.6028 50.9077 44.9501 50.3323L43.2379 49.2987ZM41.0681 52.4671C40.8706 52.7244 40.6678 52.9817 40.4596 53.2391L42.0145 54.497C42.2333 54.2265 42.4467 53.9558 42.6546 53.6848L41.0681 52.4671ZM40.4596 53.2391C40.2371 53.5141 40.0223 53.7904 39.8148 54.0681L41.4171 55.2651C41.6089 55.0083 41.808 54.7522 42.0145 54.497L40.4596 53.2391ZM38.6597 55.7486C38.2844 56.3448 37.942 56.946 37.6318 57.5512L39.4116 58.4635C39.6945 57.9115 40.0078 57.3614 40.3524 56.8138L38.6597 55.7486ZM36.779 59.4231C36.5195 60.0724 36.2955 60.7249 36.1062 61.3796L38.0275 61.935C38.1983 61.3442 38.4008 60.7541 38.6361 60.1656L36.779 59.4231ZM35.6315 63.4049C35.5078 64.0902 35.4209 64.7761 35.3696 65.4614L37.364 65.6107C37.4101 64.9941 37.4884 64.377 37.5997 63.7603L35.6315 63.4049ZM35.322 67.5353C35.3418 68.2273 35.3969 68.9169 35.4861 69.6029L37.4694 69.3451C37.3887 68.7245 37.339 68.1019 37.3212 67.4782L35.322 67.5353ZM35.8518 71.6375C36.0053 72.3064 36.1906 72.9704 36.4064 73.6283L38.3068 73.005C38.1095 72.4035 37.9407 71.7982 37.8011 71.1901L35.8518 71.6375ZM37.1322 75.5557C37.3978 76.1797 37.6907 76.7971 38.0097 77.4067L39.7818 76.4795C39.4868 75.9156 39.2167 75.3463 38.9724 74.7724L37.1322 75.5557ZM39.0282 79.187C39.3855 79.7614 39.7662 80.3278 40.1692 80.8853L41.7901 79.7137C41.4135 79.1927 41.0587 78.6647 40.7265 78.1306L39.0282 79.187ZM41.4127 82.4925C41.8422 83.0125 42.2915 83.5234 42.7598 84.0246L44.2212 82.6593C43.7801 82.1871 43.3577 81.7067 42.9546 81.2188L41.4127 82.4925ZM44.188 85.4674C44.6724 85.9298 45.1735 86.3825 45.6905 86.825L46.9909 85.3054C46.5009 84.8861 46.0266 84.4576 45.5688 84.0206L44.188 85.4674ZM47.272 88.1081C47.8001 88.5143 48.3423 88.9104 48.8979 89.2958L50.0377 87.6524C49.5088 87.2855 48.9932 86.9088 48.4915 86.5229L47.272 88.1081ZM50.5899 90.4099C51.1569 90.7642 51.7361 91.1078 52.3269 91.44L53.3072 89.6967C52.7431 89.3795 52.1904 89.0517 51.6497 88.7138L50.5899 90.4099ZM54.1072 92.3889C54.7057 92.6909 55.3147 92.9816 55.9336 93.2604L56.7551 91.4369C56.1628 91.1701 55.5803 90.892 55.0082 90.6033L54.1072 92.3889ZM57.7843 94.0467C58.4078 94.296 59.0402 94.5334 59.6811 94.7586L60.3439 92.8716C59.7298 92.6559 59.1239 92.4284 58.5268 92.1896L57.7843 94.0467ZM61.5877 95.384C62.2289 95.5797 62.8777 95.7632 63.5335 95.9339L64.0374 93.9985C63.4084 93.8347 62.7863 93.6587 62.1715 93.4711L61.5877 95.384ZM65.4876 96.4003C66.142 96.5424 66.8027 96.6719 67.4692 96.7884L67.8135 94.8182C67.1739 94.7065 66.5399 94.5822 65.9121 94.4458L65.4876 96.4003ZM69.4563 97.0944C70.1196 97.1828 70.7879 97.2583 71.461 97.3205L71.645 95.329C70.9989 95.2693 70.3573 95.1968 69.7207 95.1119L69.4563 97.0944ZM73.4671 97.4652C74.135 97.5 74.807 97.5215 75.4826 97.5294L75.5061 95.5296C74.8574 95.5219 74.2122 95.5013 73.571 95.4679L73.4671 97.4652ZM77.4938 97.5129C78.1622 97.494 78.8337 97.4617 79.508 97.4157L79.3717 95.4203C78.7241 95.4646 78.0792 95.4956 77.4374 95.5137L77.4938 97.5129ZM81.5104 97.239C82.1753 97.1669 82.8425 97.0814 83.5116 96.9819L83.2176 95.0037C82.5747 95.0992 81.9338 95.1814 81.295 95.2506L81.5104 97.239ZM85.4913 96.6478C86.1491 96.5235 86.8084 96.3855 87.4689 96.2336L87.0205 94.2845C86.3857 94.4305 85.752 94.5631 85.1198 94.6826L85.4913 96.6478ZM89.4121 95.7468C90.0598 95.5713 90.7081 95.3821 91.3569 95.1789L90.7593 93.2703C90.1352 93.4657 89.5116 93.6477 88.8888 93.8165L89.4121 95.7468ZM93.2505 94.5465C93.8819 94.3224 94.5134 94.0848 95.1447 93.8334L94.4049 91.9753C93.797 92.2173 93.1891 92.446 92.5814 92.6618L93.2505 94.5465ZM96.9869 93.0604C97.5971 92.7911 98.2069 92.5087 98.8158 92.2129L97.9421 90.4139C97.355 90.699 96.7674 90.9712 96.1794 91.2306L96.9869 93.0604ZM100.605 91.3039C101.191 90.9933 101.775 90.6701 102.359 90.3341L101.36 88.6011C100.797 88.9255 100.233 89.2374 99.6682 89.5371L100.605 91.3039ZM104.095 89.2936C104.652 88.9461 105.209 88.5866 105.764 88.2149L104.651 86.5533C104.114 86.9128 103.576 87.2603 103.037 87.5961L104.095 89.2936ZM107.424 87.0628C107.959 86.6778 108.493 86.2812 109.026 85.8726L107.808 84.2862C107.292 84.6819 106.775 85.066 106.257 85.4386L107.424 87.0628ZM110.593 84.6302C111.112 84.206 111.629 83.7701 112.143 83.3225L110.831 81.8136C110.331 82.248 109.83 82.6707 109.327 83.0821L110.593 84.6302ZM113.614 82.005C114.103 81.5549 114.589 81.0939 115.073 80.6219L113.676 79.1902C113.206 79.6492 112.733 80.0971 112.259 80.5343L113.614 82.005ZM116.492 79.1988C116.947 78.7294 117.4 78.2498 117.851 77.76L116.38 76.4055C115.941 76.8825 115.5 77.3493 115.056 77.8061L116.492 79.1988ZM119.197 76.2598C119.42 76.0046 119.642 75.7468 119.864 75.4864L118.341 74.1896C118.125 74.4436 117.908 74.6949 117.691 74.9437L119.197 76.2598Z" fill="#4C4C4C"/>
</svg>
