<svg width="70" height="70" viewBox="0 0 70 70" fill="none" xmlns="http://www.w3.org/2000/svg">
<g clip-path="url(#clip0_32_951)">
<path d="M34.5 35V35.5H35H47.625V38.875H31.125V18H34.5V35Z" fill="#EF395A" stroke="black"/>
<path d="M4.45895 18.2911L4.94136 18.7735L5.25611 18.1682C10.8557 7.39976 22.0574 0.5 35 0.5C53.9739 0.5 69.5 16.0261 69.5 35C69.5 53.9739 53.9739 69.5 35 69.5C24.8288 69.5 15.4924 64.9171 9.44878 57.806L15.2611 52.7687C20.1516 58.3368 27.1495 61.75 35 61.75C49.7136 61.75 61.75 49.7136 61.75 35C61.75 20.2864 49.7136 8.25 35 8.25C24.2889 8.25 14.9398 14.9398 10.4903 23.8389L10.3291 24.1612L10.5839 24.4161L16.2929 30.125H0.5V14.3321L4.45895 18.2911Z" fill="#EF395A" stroke="black"/>
</g>
<defs>
<clipPath id="clip0_32_951">
<rect width="70" height="70" fill="white"/>
</clipPath>
</defs>
</svg>
